User Type,Username,Date,Text
,damarkus,2013-01-27T23:24Z,"Gracias aqui mas info


Format                         : AVI
Format/Info                    : Audio Video Interleave
File size                      : 704 MiB
Duration                       : 1h 36mn
Overall bit rate               : 1 018 Kbps
Paranormal.Activity.4.2012.UNRATED.BDRip.LATiNO.XviD-SPARKS



Video
ID                             : 0
Format                         : MPEG-4 Visual
Format profile                 : Advanced Simple@L5
Format settings, BVOP          : 2
Format settings, QPel          : No
Format settings, GMC           : No warppoints
Format settings, Matrix        : Default (H.263)
Codec ID                       : XVID
Codec ID/Hint                  : XviD
Duration                       : 1h 36mn
Bit rate                       : 881 Kbps
Width                          : 624 pixels
Height                         : 352 pixels
Display aspect ratio           : 16:9
Frame rate                     : 23.976 fps
Color space                    : YUV
Chroma subsampling             : 4:2:0
Bit depth                      : 8 bits
Scan type                      : Progressive
Compression mode               : Lossy
Bits/(Pixel*Frame)             : 0.167
Stream size                    : 609 MiB (87%)
Writing library                : XviD 61

Audio
ID                             : 1
Format                         : MPEG Audio
Format version                 : Version 1
Format profile                 : Layer 3
Mode                           : Joint stereo
Mode extension                 : MS Stereo
Codec ID                       : 55
Codec ID/Hint                  : MP3
Duration                       : 1h 36mn
Bit rate mode                  : Constant
Bit rate                       : 128 Kbps
Channel(s)                     : 2 channels
Sampling rate                  : 48.0 KHz
Compression mode               : Lossy
Stream size                    : 88.5 MiB (13%)
Alignment                      : Aligned on interleaves
Interleave, duration           : 42 ms (1.00 video frame)
Interleave, preload duration   : 504 ms
Writing library                : LAME3.99r
Encoding settings              : -m j -V 4 -q 2 -lowpass 17 -b 128
"
